<svg width="32" height="32" viewBox="0 0 32 32" fill="none" xmlns="http://www.w3.org/2000/svg">
<g clip-path="url(#clip0_178_4575)">
<path d="M28.5625 3.8125H3.4375C2.52612 3.81349 1.65236 4.17598 1.00792 4.82042C0.363475 5.46486 0.000992606 6.33862 0 7.25V24.75C0.000992606 25.6614 0.363475 26.5351 1.00792 27.1796C1.65236 27.824 2.52612 28.1865 3.4375 28.1875H28.5625C29.4739 28.1865 30.3476 27.824 30.9921 27.1796C31.6365 26.5351 31.999 25.6614 32 24.75V7.25C31.999 6.33862 31.6365 5.46486 30.9921 4.82042C30.3476 4.17598 29.4739 3.81349 28.5625 3.8125ZM30.125 7.25V24.75C30.1251 24.8259 30.1194 24.9018 30.1081 24.9769L21.0944 16L30.1081 7.02313C30.1194 7.09822 30.1251 7.17406 30.125 7.25ZM28.5625 5.6875C28.6344 5.68774 28.7062 5.69275 28.7775 5.7025L16 18.4269L3.2225 5.7025C3.29376 5.69275 3.36558 5.68774 3.4375 5.6875H28.5625ZM1.89188 24.9769C1.88057 24.9018 1.87493 24.8259 1.875 24.75V7.25C1.87493 7.17406 1.88057 7.09822 1.89188 7.02313L10.9056 16L1.89188 24.9769ZM3.4375 26.3125C3.36558 26.3123 3.29376 26.3073 3.2225 26.2975L12.2344 17.3231L15.3387 20.4144C15.5144 20.5892 15.7522 20.6873 16 20.6873C16.2478 20.6873 16.4856 20.5892 16.6612 20.4144L19.7656 17.3231L28.7775 26.2975C28.7062 26.3073 28.6344 26.3123 28.5625 26.3125H3.4375Z" fill="#554795"/>
</g>
<defs>
<clipPath id="clip0_178_4575">
<rect width="32" height="32" fill="white"/>
</clipPath>
</defs>
</svg>
