<svg width="32" height="32" viewBox="0 0 32 32" fill="none" xmlns="http://www.w3.org/2000/svg">
<path d="M27.5793 20.6398L25.9893 18.6398C25.6715 18.2313 25.2764 17.8894 24.8265 17.6336C24.3766 17.3779 23.8807 17.2133 23.3672 17.1492C22.8537 17.0851 22.3325 17.1228 21.8336 17.2602C21.3346 17.3976 20.8676 17.6319 20.4593 17.9498C20.2324 18.1289 19.963 18.2462 19.6773 18.29C19.3916 18.3338 19.0994 18.3027 18.8293 18.1998C17.6891 17.7335 16.6923 16.9746 15.9393 15.9998C15.1927 15.031 14.7042 13.8887 14.5193 12.6798C14.4782 12.3917 14.5149 12.0979 14.6257 11.8289C14.7365 11.5598 14.9173 11.3253 15.1493 11.1498L15.6993 10.7198C16.0363 10.4714 16.3202 10.1582 16.5344 9.79849C16.7485 9.43881 16.8886 9.03993 16.9464 8.62532C17.0042 8.2107 16.9784 7.78872 16.8707 7.3842C16.763 6.97967 16.5755 6.60076 16.3193 6.26975L14.2193 3.59975C13.5712 2.77821 12.6271 2.24331 11.5893 2.10975C11.0769 2.04046 10.5558 2.07561 10.0574 2.2131C9.55903 2.35059 9.09363 2.58757 8.68927 2.90975L4.70927 5.99975C4.20571 6.4042 3.84613 6.96036 3.68398 7.58554C3.52183 8.21072 3.56577 8.87154 3.80927 9.46975C5.48183 13.3818 7.65679 17.0594 10.2793 20.4098C12.9089 23.7497 15.9573 26.7376 19.3493 29.2998C19.8589 29.6847 20.4806 29.8919 21.1193 29.8898C21.7945 29.9104 22.4569 29.7025 22.9993 29.2998L26.9993 26.1798C27.4069 25.8597 27.7474 25.4624 28.0013 25.0106C28.2552 24.5588 28.4174 24.0613 28.4787 23.5467C28.54 23.0321 28.4992 22.5104 28.3586 22.0116C28.218 21.5128 27.9803 21.0466 27.6593 20.6398H27.5793ZM26.4093 23.3198C26.3824 23.5708 26.3047 23.8138 26.1809 24.0338C26.0572 24.2539 25.8899 24.4464 25.6893 24.5998L21.6893 27.7198C21.5253 27.8487 21.3228 27.9188 21.1143 27.9188C20.9057 27.9188 20.7032 27.8487 20.5393 27.7198C17.278 25.2699 14.3529 22.402 11.8393 19.1898C9.33059 15.983 7.24979 12.4634 5.64927 8.71975C5.57558 8.52603 5.5639 8.3142 5.61585 8.11356C5.66781 7.91291 5.78082 7.73337 5.93927 7.59975L9.93927 4.47975C10.2766 4.21672 10.6915 4.07258 11.1193 4.06975H11.3593C11.872 4.13898 12.338 4.40422 12.6593 4.80975L14.7693 7.48975C14.8635 7.61401 14.9312 7.75628 14.9683 7.90776C15.0053 8.05924 15.0109 8.21671 14.9846 8.37042C14.9584 8.52414 14.9009 8.67084 14.8157 8.80145C14.7305 8.93206 14.6194 9.0438 14.4893 9.12975L13.9393 9.55975C13.4202 9.9561 13.0167 10.4841 12.7705 11.089C12.5243 11.6939 12.4445 12.3536 12.5393 12.9998C12.7722 14.5519 13.3988 16.0185 14.3593 17.2598C15.3369 18.4798 16.6156 19.4242 18.0693 19.9998C18.6659 20.2378 19.3149 20.3141 19.9505 20.2211C20.5861 20.128 21.1859 19.8688 21.6893 19.4698C22.1026 19.1675 22.6161 19.0354 23.124 19.1005C23.6319 19.1656 24.0955 19.423 24.4193 19.8198L25.9993 21.8198C26.1684 22.0274 26.2923 22.2681 26.3629 22.5264C26.4335 22.7847 26.4493 23.055 26.4093 23.3198Z" fill="#554795"/>
</svg>
