<svg width="80" height="54" viewBox="0 0 80 54" fill="none" xmlns="http://www.w3.org/2000/svg">
<path fill-rule="evenodd" clip-rule="evenodd" d="M32.9858 26.2202C28.3116 26.2202 24.5083 30.0231 24.5083 34.6976C24.5085 39.3718 28.3114 43.1749 32.9858 43.1749C37.6605 43.1748 41.4615 39.3719 41.4615 34.6976C41.4616 30.023 37.6602 26.2203 32.9858 26.2202ZM32.9858 44.8921C27.3637 44.8921 22.791 40.319 22.791 34.6976C22.791 29.0762 27.3634 24.5029 32.9858 24.5029C38.6067 24.5028 43.1806 29.0762 43.1806 34.6976C43.1807 40.3189 38.6065 44.8922 32.9858 44.8921Z" fill="#594599"/>
<path fill-rule="evenodd" clip-rule="evenodd" d="M33.9609 39.4947H30.7675C30.2934 39.4947 29.9087 39.1104 29.9087 38.6361C29.9089 38.1618 30.2934 37.7774 30.7674 37.7774H33.9609C34.5727 37.7774 35.0714 37.2792 35.0714 36.6671C35.0718 36.0547 34.5723 35.5567 33.9605 35.5567L32.0092 35.5566C30.4511 35.5566 29.1807 34.2882 29.1807 32.729C29.1808 31.1698 30.4508 29.9014 32.0089 29.9014H35.2022C35.6763 29.9014 36.0607 30.2858 36.0607 30.7601C36.0607 31.2342 35.6761 31.6187 35.202 31.6187L32.0092 31.6186C31.3974 31.6186 30.898 32.1169 30.898 32.729C30.8983 33.3411 31.3971 33.8394 32.0089 33.8394L33.9609 33.8394C35.5206 33.8394 36.7888 35.1079 36.7888 36.6671C36.7888 38.2262 35.5204 39.4948 33.9609 39.4947Z" fill="#594599"/>
<path fill-rule="evenodd" clip-rule="evenodd" d="M32.9866 31.6183C32.5129 31.6183 32.1279 31.234 32.1279 30.7598L32.1281 28.7083C32.1281 28.2339 32.5125 27.8496 32.9865 27.8496C33.4608 27.8495 33.8452 28.234 33.8452 28.7083L33.8455 30.7596C33.8455 31.2339 33.4606 31.6184 32.9866 31.6183Z" fill="#594599"/>
<path fill-rule="evenodd" clip-rule="evenodd" d="M32.9866 41.5461C32.5129 41.5461 32.1279 41.1617 32.1279 40.6875L32.1281 38.6358C32.1281 38.1617 32.5125 37.7773 32.9865 37.7773C33.4608 37.7773 33.8452 38.1618 33.8452 38.636L33.8455 40.6874C33.8455 41.1617 33.4606 41.5461 32.9866 41.5461Z" fill="#594599"/>
<path fill-rule="evenodd" clip-rule="evenodd" d="M3.82915 17.1127C2.94044 17.1127 2.21734 17.8362 2.21734 18.7251L2.21754 50.6699C2.21754 51.5589 2.94008 52.2823 3.82915 52.2823L62.1412 52.2822C63.0303 52.2822 63.7546 51.5591 63.7546 50.6699L63.7548 18.725C63.7548 17.836 63.0301 17.1128 62.141 17.1128L3.82915 17.1127ZM62.1412 53.9996H3.82915C1.99377 53.9996 0.5 52.5061 0.5 50.6699L0.500102 18.725C0.500102 16.8892 1.99372 15.3956 3.82915 15.3956L62.1412 15.3955C63.9782 15.3955 65.4719 16.8892 65.4719 18.7251V50.6699C65.4719 52.5059 63.9782 53.9996 62.1412 53.9996Z" fill="#594599"/>
<path fill-rule="evenodd" clip-rule="evenodd" d="M12.7465 46.9885H53.2233C53.6045 44.2812 55.751 42.1332 58.4593 41.7535L58.4594 27.6435C55.751 27.264 53.6043 25.116 53.2232 22.4089L12.7465 22.4088C12.3674 25.1159 10.2187 27.2641 7.51031 27.6439L7.51046 41.7533C10.2189 42.1332 12.3671 44.2813 12.7465 46.9885ZM54.0231 48.7058H11.9468C11.4727 48.7058 11.0881 48.3215 11.0881 47.8472C11.0883 45.4011 9.09885 43.4112 6.65166 43.4112C6.17779 43.4112 5.79297 43.0266 5.79297 42.5526L5.79302 26.8448C5.79302 26.3706 6.17759 25.9861 6.65166 25.9861C9.09915 25.9861 11.0881 23.9962 11.0881 21.55C11.0883 21.0758 11.4727 20.6914 11.9467 20.6914H54.0231C54.4972 20.6914 54.8815 21.0758 54.8815 21.55C54.8816 23.9961 56.8708 25.9861 59.318 25.9861C59.792 25.9861 60.1766 26.3705 60.1766 26.8448L60.1768 42.5524C60.1768 43.0266 59.792 43.4112 59.318 43.4112C56.8712 43.4112 54.8815 45.4012 54.8815 47.8472C54.8816 48.3214 54.4969 48.7059 54.0231 48.7058Z" fill="#594599"/>
<path fill-rule="evenodd" clip-rule="evenodd" d="M75.8283 38.6039H64.6139C64.1398 38.6039 63.7552 38.2196 63.7552 37.7453C63.7554 37.271 64.1397 36.8867 64.6138 36.8867L75.8283 36.8867C76.7174 36.8867 77.4401 36.1634 77.4401 35.2744L77.4403 3.32946C77.4403 2.44054 76.7173 1.71734 75.8282 1.71734L17.5147 1.71724C16.626 1.71724 15.9029 2.44064 15.9029 3.32951L15.9031 16.2544C15.9031 16.7286 15.5183 17.1131 15.0442 17.1131C14.5704 17.1131 14.1855 16.7287 14.1855 16.2545L14.1856 3.32946C14.1856 1.49346 15.6793 5.02936e-05 17.5147 5.02936e-05L75.8288 0C77.6641 0 79.1578 1.49361 79.1578 3.32951V35.2742C79.1578 37.1104 77.6637 38.604 75.8283 38.6039Z" fill="#594599"/>
<path fill-rule="evenodd" clip-rule="evenodd" d="M67.7078 33.3093H64.6129C64.1388 33.3093 63.7542 32.925 63.7542 32.4507C63.7544 31.9765 64.1388 31.5919 64.6128 31.5919H66.908C67.2892 28.8847 69.4374 26.7367 72.144 26.3569L72.1441 12.2473C69.4377 11.8675 67.289 9.71948 66.9079 7.01221H26.4312C26.0521 9.71937 23.9034 11.8676 21.1968 12.2473V16.2546C21.1968 16.7287 20.8122 17.1133 20.3381 17.1133C19.8641 17.1133 19.4795 16.7288 19.4795 16.2546L19.4797 11.4481C19.4797 10.9742 19.8641 10.5896 20.3381 10.5896C22.7838 10.5896 24.7728 8.59963 24.7728 6.15357C24.773 5.67914 25.1574 5.29507 25.6314 5.29507L67.7078 5.29492C68.1819 5.29492 68.5662 5.67929 68.5662 6.15357C68.5663 8.59963 70.5573 10.5896 73.0027 10.5896C73.4767 10.5896 73.8613 10.9742 73.8613 11.4482L73.8615 27.156C73.8615 27.6299 73.4767 28.0147 73.0027 28.0147C70.5574 28.0145 68.5662 30.0046 68.5662 32.4507C68.5663 32.925 68.1816 33.3094 67.7078 33.3093Z" fill="#594599"/>
<path fill-rule="evenodd" clip-rule="evenodd" d="M17.5809 35.6151H12.7758C12.3001 35.6151 11.917 35.2305 11.917 34.7563C11.9173 34.282 12.2998 33.8976 12.7757 33.8976L17.5809 33.8975C18.055 33.8975 18.4392 34.2822 18.4392 34.7563C18.4393 35.2305 18.0546 35.6151 17.5809 35.6151Z" fill="#594599"/>
<path fill-rule="evenodd" clip-rule="evenodd" d="M53.1969 35.6151H48.3899C47.9161 35.6151 47.5312 35.2305 47.5312 34.7563C47.5314 34.282 47.9158 33.8976 48.3899 33.8976L53.1969 33.8975C53.6707 33.8975 54.0553 34.2822 54.0553 34.7563C54.0554 35.2305 53.6707 35.6151 53.1969 35.6151Z" fill="#594599"/>
</svg>
