<svg width="59" height="46" viewBox="0 0 59 46" fill="none" xmlns="http://www.w3.org/2000/svg">
<path fill-rule="evenodd" clip-rule="evenodd" d="M36.5141 41.3347C35.3678 41.3347 33.8717 40.7941 32.0751 39.3501C30.2234 37.8637 29.0468 36.3763 28.3724 34.6711C28.3706 34.6672 28.3687 34.6619 28.3672 34.658C28.3581 34.6329 27.4076 32.1326 25.522 31.3901C25.1968 31.2622 25.0368 30.8943 25.1649 30.5686C25.293 30.244 25.6602 30.0846 25.9856 30.2125C28.3654 31.1487 29.4736 34.0025 29.5519 34.2109C30.1427 35.7011 31.1965 37.0211 32.8679 38.3636C35.3606 40.3655 36.9648 40.3259 37.5809 39.6837C38.2604 38.9755 38.1357 37.2546 36.567 35.4584C36.0026 34.8121 35.5395 34.3257 35.1308 33.8971C33.2646 31.9399 32.8943 31.4178 32.2957 26.5503C32.0711 24.7237 30.437 23.3471 28.4947 23.3471C28.4941 23.3471 28.4939 23.3471 28.4934 23.3471L15.5317 23.351C15.5316 23.351 15.5318 23.351 15.5317 23.351C15.1823 23.3509 14.8986 23.0676 14.8984 22.7181C14.8984 22.3686 15.1817 22.0851 15.5313 22.0851L28.493 22.0811C28.4934 22.0811 28.4941 22.0811 28.4947 22.0811C31.0758 22.0811 33.2498 23.9353 33.5522 26.3961C34.1187 31.0011 34.413 31.3097 36.0471 33.024C36.4441 33.4407 36.9379 33.9577 37.5205 34.625C39.6068 37.0145 39.5896 39.4199 38.4944 40.5607C38.0491 41.0248 37.3817 41.3348 36.5141 41.3347Z" fill="#594599"/>
<path fill-rule="evenodd" clip-rule="evenodd" d="M40.6026 46.0001C40.2613 46.0001 39.9238 45.9988 39.5903 45.9935C34.0824 45.9157 27.422 45.1865 25.2475 43.3745C23.5871 41.9898 22.8644 40.654 22.2837 39.5805C21.2746 37.7144 20.6656 36.5883 15.5315 36.5883C15.1819 36.5882 14.8984 36.3047 14.8984 35.9553C14.8985 35.6058 15.1818 35.3223 15.5315 35.3223C21.1357 35.3222 22.1714 36.7109 23.3973 38.9778C23.9539 40.0064 24.5847 41.1735 26.0582 42.4013C27.6162 43.7002 33.0615 44.6352 39.6082 44.7275C46.1797 44.8197 51.7496 44.0167 53.4681 42.727C54.3477 42.0662 54.6681 41.2949 54.3675 40.5564C54.0418 39.7545 53.0844 39.2416 52.1388 39.3629C51.0068 39.5079 40.4387 40.5498 38.311 39.6873C37.987 39.5554 37.8308 39.1862 37.962 38.8618C38.0935 38.5387 38.4625 38.3818 38.7865 38.5136C40.3167 39.1333 49.3789 38.4398 51.9776 38.1062C53.4984 37.9122 54.9965 38.7418 55.5411 40.0803C56.062 41.3634 55.5714 42.731 54.2277 43.7398C51.9985 45.4132 45.9093 46.0001 40.6026 46.0001Z" fill="#594599"/>
<path fill-rule="evenodd" clip-rule="evenodd" d="M3.12393 20.1103C2.37517 20.1103 1.766 20.7197 1.766 21.4687V37.2026C1.766 37.9516 2.37514 38.5609 3.12389 38.5609L13.5407 38.5609C14.2893 38.5609 14.8984 37.9516 14.8984 37.2026L14.8985 21.4687C14.8985 20.7196 14.2893 20.1104 13.5407 20.1104L3.12393 20.1103ZM13.5407 39.8269H3.12393C1.67715 39.8269 0.5 38.6493 0.5 37.2026V21.4687C0.5 20.022 1.67711 18.8457 3.12389 18.8457L13.5407 18.8457C14.9875 18.8457 16.1644 20.022 16.1644 21.4687V37.2026C16.1644 38.6492 14.9874 39.8269 13.5407 39.8269Z" fill="#594599"/>
<path fill-rule="evenodd" clip-rule="evenodd" d="M38.7559 1.27105C37.9241 1.27105 37.1081 1.44248 36.3728 1.74975C33.4504 2.96828 31.3187 6.36665 33.1447 11.2117C34.7698 15.524 40.9478 20.6064 44.8461 22.5146C48.7447 20.6063 54.9222 15.524 56.5482 11.2117C58.3734 6.36657 56.2423 2.96828 53.32 1.74975C50.7427 0.674958 47.1722 1.25785 45.4216 5.07825C45.3185 5.30239 45.0936 5.44747 44.8461 5.44747C44.5988 5.44747 44.3739 5.30243 44.2708 5.07825C43.0197 2.34842 40.8389 1.27105 38.7559 1.27105ZM44.8462 23.8478C44.7553 23.8478 44.6643 23.8281 44.5798 23.7899C40.5932 21.9396 33.8054 16.5553 31.9599 11.6575C29.8477 6.05279 32.5142 1.98709 35.8855 0.581354C37.6009 -0.133457 39.4723 -0.191436 41.155 0.420427C42.6705 0.970348 43.9295 2.01744 44.8461 3.47993C45.763 2.01744 47.0219 0.970385 48.5374 0.420427C50.2205 -0.191473 52.0917 -0.13342 53.8066 0.581354C57.1786 1.98702 59.8451 6.05279 57.7325 11.6575C55.8876 16.5552 49.0991 21.9397 45.1126 23.7899C45.0281 23.8281 44.9371 23.8479 44.8462 23.8478Z" fill="#594599"/>
</svg>
