<svg width="49" height="49" viewBox="0 0 49 49" fill="none" xmlns="http://www.w3.org/2000/svg">
<path fill-rule="evenodd" clip-rule="evenodd" d="M47.1106 36.3548H27.7208C27.4297 36.3548 27.1934 36.1197 27.1934 35.8274C27.1935 35.5363 27.4296 35.3001 27.7208 35.3001H47.1106C47.349 35.3001 47.4973 35.1913 47.5808 35.1001C47.7039 34.965 47.7676 34.7771 47.7511 34.5981L46.9349 25.9089C46.9216 25.7727 46.9106 25.642 46.9008 25.5167C46.7843 24.1522 46.7492 23.7402 45.5121 23.4249L40.4957 22.1483C39.5543 23.2239 38.3863 23.8117 37.1756 23.8117C35.9639 23.8117 34.796 23.2239 33.8545 22.1483L28.8381 23.4249C27.7945 23.6908 27.6505 24.0709 27.5505 24.6192C27.4989 24.9059 27.2242 25.0949 26.9374 25.0432C26.6508 24.9916 26.4617 24.7169 26.5134 24.4302C26.7167 23.3118 27.3143 22.7251 28.5777 22.4032L33.9183 21.0442C34.1204 20.9915 34.3346 21.0651 34.4631 21.2299C35.2355 22.2142 36.1979 22.757 37.1756 22.757C38.1523 22.757 39.1147 22.2142 39.8871 21.2299C40.0157 21.065 40.2298 20.9926 40.432 21.0442L45.7726 22.4032C47.7357 22.9031 47.8313 24.0171 47.951 25.4277C47.9621 25.5497 47.9719 25.6771 47.9851 25.8101L48.8003 34.4992C48.8454 34.976 48.6849 35.4539 48.3608 35.8109C48.0412 36.1614 47.5973 36.3548 47.1106 36.3548Z" fill="#594599"/>
<path fill-rule="evenodd" clip-rule="evenodd" d="M34.0469 22.0825C33.7558 22.0825 33.5195 21.8463 33.5195 21.5552L33.5196 19.2129C33.5196 18.9217 33.7557 18.6855 34.0469 18.6855C34.338 18.6855 34.5742 18.9218 34.5742 19.2129L34.5743 21.5552C34.5743 21.8463 34.338 22.0825 34.0469 22.0825ZM40.3015 22.0825C40.0103 22.0825 39.774 21.8463 39.774 21.5552L39.7741 19.2129C39.7741 18.9217 40.0103 18.6855 40.3014 18.6855C40.5925 18.6855 40.8287 18.9218 40.8287 19.2129L40.8288 21.5552C40.8288 21.8463 40.5925 22.0825 40.3015 22.0825Z" fill="#594599"/>
<path fill-rule="evenodd" clip-rule="evenodd" d="M32.2628 12.9082C32.4275 17.7927 34.8851 20.0241 37.1736 20.0241C39.4633 20.0241 41.9208 17.7927 42.0856 12.9082C40.3421 12.8291 38.3722 12.026 37.1736 10.9109C35.9761 12.026 34.0051 12.8291 32.2628 12.9082ZM37.1736 21.0788C35.5774 21.0788 34.0974 20.2779 33.0065 18.8244C31.8244 17.2478 31.1992 15.0198 31.1992 12.3809C31.1992 12.2359 31.2585 12.0974 31.3629 11.9985C31.4673 11.8986 31.6079 11.8481 31.7529 11.8535C33.4713 11.9403 35.7684 11.0043 36.7704 9.81007C36.8704 9.69029 37.0176 9.62109 37.1736 9.62109C37.3296 9.62109 37.4779 9.69032 37.5779 9.81007C38.5799 11.0043 40.8771 11.9414 42.5954 11.8535C42.7404 11.848 42.8799 11.8986 42.9854 11.9985C43.0898 12.0974 43.1491 12.2359 43.1491 12.3809C43.1492 18.3564 40.052 21.0788 37.1736 21.0788Z" fill="#594599"/>
<path fill-rule="evenodd" clip-rule="evenodd" d="M44.8798 23.2483C44.7666 23.2483 44.6512 23.212 44.5545 23.1363C44.3261 22.9561 44.2854 22.6243 44.4655 22.3958C45.194 21.4652 45.0852 20.5061 44.9467 19.291C44.8852 18.7505 44.8215 18.1913 44.8204 17.5727L44.8216 12.7157C44.8216 11.4951 44.4183 9.65822 43.29 8.16076C41.9288 6.35572 39.8721 5.43945 37.1772 5.43945C37.175 5.43942 37.1739 5.43945 37.1717 5.43945C34.4757 5.43942 32.4201 6.35572 31.0589 8.16076C29.9295 9.65822 29.5274 11.4951 29.5274 12.7157L29.5275 17.5727C29.5275 18.1913 29.4637 18.7505 29.4022 19.291C29.2637 20.5061 29.1549 21.4652 29.8833 22.3958C30.0635 22.6243 30.0229 22.9561 29.7944 23.1363C29.5648 23.3153 29.233 23.2758 29.0539 23.0462C28.0585 21.7761 28.2024 20.5116 28.3541 19.1724C28.4134 18.6604 28.4727 18.1309 28.4727 17.5727L28.4727 12.7157C28.4727 12.0411 28.5991 9.67248 30.2162 7.52686C31.2963 6.0931 33.3803 4.38478 37.1717 4.38478C37.1728 4.38475 37.1761 4.38478 37.1783 4.38478C40.9697 4.38475 43.0527 6.09313 44.1326 7.52686C45.7499 9.67248 45.8762 12.0411 45.8762 12.7157L45.8751 17.5727C45.8762 18.1309 45.9355 18.6604 45.9937 19.1713C46.1465 20.5105 46.2904 21.7761 45.295 23.0462C45.1917 23.1791 45.0368 23.2483 44.8798 23.2483Z" fill="#594599"/>
<path fill-rule="evenodd" clip-rule="evenodd" d="M21.5955 36.3551H2.44636C1.88819 36.3551 1.37945 36.1343 1.01362 35.7321C0.641222 35.3235 0.4577 34.7752 0.508244 34.2281L1.49814 23.6944C1.51246 23.534 1.52557 23.378 1.53878 23.2286C1.68057 21.5641 1.79256 20.2491 4.09638 19.6624L10.5696 18.0144C10.7717 17.9628 10.9859 18.0353 11.1145 18.2002C12.0725 19.4218 13.2711 20.0953 14.4906 20.0953C15.7101 20.0953 16.9087 19.4218 17.8667 18.2002C17.9953 18.0353 18.2095 17.9628 18.4116 18.0144L24.8848 19.6624C27.1886 20.2491 27.3006 21.5642 27.4424 23.2286C27.4556 23.378 27.4688 23.5329 27.483 23.6944L27.7061 26.0686C27.7336 26.3586 27.5204 26.6157 27.2304 26.6431C26.9403 26.6684 26.6832 26.4575 26.6558 26.1663L26.4338 23.7933C26.4174 23.6285 26.4042 23.4703 26.391 23.3187C26.2526 21.6938 26.2009 21.0862 24.6244 20.6841L18.4764 19.1197C17.3492 20.4314 15.9452 21.15 14.4906 21.15C13.036 21.15 11.6319 20.4314 10.5047 19.1197L4.35679 20.6841C2.78033 21.0862 2.72748 21.6938 2.59018 23.3187C2.577 23.4703 2.56271 23.6285 2.54729 23.7933L1.55855 34.327C1.53557 34.5753 1.62336 34.8346 1.79365 35.0213C1.90909 35.1488 2.11666 35.3004 2.44624 35.3004H21.5955C21.8866 35.3004 22.1228 35.5366 22.1228 35.8277C22.1228 36.12 21.8866 36.3551 21.5955 36.3551Z" fill="#594599"/>
<path fill-rule="evenodd" clip-rule="evenodd" d="M10.6993 19.0519C10.4081 19.0519 10.1719 18.8157 10.1719 18.5246L10.1719 15.7197C10.1719 15.4275 10.4081 15.1924 10.6992 15.1924C10.9904 15.1924 11.2265 15.4275 11.2265 15.7197V18.5246C11.2265 18.8157 10.9903 19.0519 10.6993 19.0519Z" fill="#594599"/>
<path fill-rule="evenodd" clip-rule="evenodd" d="M18.2823 19.0529C17.9901 19.0529 17.7549 18.8167 17.7549 18.5255V15.7207C17.7549 15.4285 17.99 15.1934 18.2822 15.1934C18.5734 15.1933 18.8096 15.4285 18.8096 15.7207L18.8097 18.5255C18.8097 18.8167 18.5734 19.0529 18.2823 19.0529Z" fill="#594599"/>
<path fill-rule="evenodd" clip-rule="evenodd" d="M14.4904 17.812C12.6667 17.812 10.9715 16.9683 9.71901 15.4379C8.34357 13.757 7.61621 11.3795 7.61621 8.56156C7.61634 8.27038 7.85243 8.03419 8.14358 8.03419C8.43479 8.03419 8.67091 8.27041 8.67091 8.56156C8.67097 14.192 11.6878 16.7573 14.4904 16.7573C17.2931 16.7573 20.3099 14.192 20.3099 8.56156C20.3099 8.52858 20.3088 8.49672 20.3076 8.46377L20.3077 8.41214C20.3023 8.12099 20.534 7.88038 20.8251 7.87599C20.8284 7.87596 20.8317 7.87599 20.835 7.87599C21.1218 7.87596 21.3569 8.1056 21.3613 8.39345L21.3623 8.44067C21.3635 8.48131 21.3646 8.52089 21.3646 8.56156C21.3646 11.3795 20.6373 13.757 19.2618 15.4379C18.0083 16.9683 16.3141 17.812 14.4904 17.812Z" fill="#594599"/>
<path fill-rule="evenodd" clip-rule="evenodd" d="M14.5108 1.06326C13.2045 1.06326 11.9246 1.53454 11.094 2.72879C11.0139 2.84523 10.8897 2.92324 10.7501 2.94741C9.62192 3.13965 8.8385 3.61538 8.42213 4.36134C7.92556 5.25235 7.95412 6.51247 8.50232 8.022C9.87022 7.91101 11.0621 7.05301 11.5983 5.76539C11.6588 5.62036 11.7806 5.50943 11.9312 5.46328C12.0817 5.41713 12.2454 5.44129 12.3761 5.52809C14.8481 7.16615 17.6221 7.97806 20.4225 7.89348C21.129 4.80079 19.1426 2.62222 17.1617 1.67848C16.3642 1.29727 15.4303 1.06326 14.5108 1.06326ZM8.19697 9.08985C8.17719 9.08985 8.15736 9.08988 8.13758 9.08875C7.92556 9.08654 7.73547 8.95693 7.65528 8.75917C6.8599 6.7915 6.80602 5.09306 7.50146 3.84718C8.04421 2.87491 9.02968 2.2212 10.359 1.94765C11.9114 -0.0815628 14.859 -0.588001 17.6155 0.72596C20.238 1.9762 22.4067 4.87992 21.341 8.55046C21.2795 8.76357 21.0894 8.91629 20.8664 8.92946C17.8968 9.10744 14.9458 8.34719 12.297 6.72779C11.4566 8.18348 9.90968 9.08988 8.19697 9.08985Z" fill="#594599"/>
<path fill-rule="evenodd" clip-rule="evenodd" d="M12.6756 24.7349C12.4734 24.7349 12.2734 24.7778 12.0888 24.8536C11.3671 25.1557 10.8452 26.0126 11.311 27.2486C11.7406 28.3879 13.394 29.7776 14.4905 30.3643C15.587 29.7776 17.2403 28.3879 17.6688 27.2486C18.1347 26.0126 17.6139 25.1557 16.891 24.8536C16.2462 24.5844 15.4012 24.7349 14.9695 25.6764C14.8839 25.8643 14.697 25.9841 14.4905 25.9841C14.2839 25.9841 14.0972 25.8643 14.0115 25.6764C13.7028 25.003 13.182 24.7349 12.6756 24.7349ZM14.4905 31.4816C14.4147 31.4816 14.3389 31.4652 14.2685 31.4322C13.026 30.8554 10.9067 29.1668 10.3244 27.6211C9.61483 25.7368 10.531 24.3614 11.6835 23.8802C12.5811 23.5066 13.7214 23.6407 14.4905 24.4965C15.2596 23.6407 16.3999 23.5066 17.2975 23.8802C18.45 24.3614 19.3662 25.7369 18.6565 27.6211C18.0732 29.1668 15.955 30.8554 14.7124 31.4322C14.6421 31.4652 14.5663 31.4816 14.4905 31.4816Z" fill="#594599"/>
<path fill-rule="evenodd" clip-rule="evenodd" d="M7.25985 36.3547C6.96867 36.3547 6.73242 36.1196 6.73242 35.8274L6.73245 28.5039C6.73245 28.2127 6.96861 27.9766 7.25976 27.9766C7.55091 27.9765 7.78712 28.2127 7.78712 28.5039V35.8274C7.78712 36.1196 7.55091 36.3547 7.25985 36.3547Z" fill="#594599"/>
<path fill-rule="evenodd" clip-rule="evenodd" d="M31.5987 36.3548C31.3076 36.3548 31.0713 36.1196 31.0713 35.8274V29.9541C31.0713 29.6629 31.3075 29.4268 31.5986 29.4268C31.8899 29.4268 32.126 29.6629 32.126 29.9541L32.126 35.8274C32.126 36.1196 31.8898 36.3548 31.5987 36.3548Z" fill="#594599"/>
<path fill-rule="evenodd" clip-rule="evenodd" d="M42.751 36.3548C42.4599 36.3548 42.2236 36.1196 42.2236 35.8274L42.2238 29.9541C42.2238 29.6629 42.4598 29.4268 42.751 29.4268C43.0422 29.4268 43.2783 29.6629 43.2783 29.9541L43.2784 35.8274C43.2784 36.1196 43.0421 36.3548 42.751 36.3548Z" fill="#594599"/>
<path fill-rule="evenodd" clip-rule="evenodd" d="M36.1257 26.5128C35.9774 26.5128 35.8312 26.5447 35.6972 26.6007C35.1996 26.8083 34.7513 27.4038 35.1259 28.3991C35.4578 29.2792 36.7255 30.3525 37.5924 30.8293C38.4592 30.3525 39.7259 29.2792 40.0577 28.3991C40.4335 27.4038 39.9852 26.8083 39.4875 26.6007C39.0129 26.4029 38.3911 26.515 38.0714 27.2115C37.9857 27.3994 37.7978 27.5191 37.5924 27.5191C37.3859 27.5191 37.199 27.3994 37.1122 27.2115C36.8838 26.7127 36.4992 26.5128 36.1257 26.5128ZM37.5924 31.9488C37.5166 31.9488 37.4407 31.9324 37.3704 31.8994C36.3279 31.416 34.6249 30.0592 34.1393 28.7716C33.5428 27.1895 34.3184 26.0327 35.2907 25.6273C36.0225 25.3219 36.9442 25.4153 37.5924 26.0678C38.2406 25.4153 39.1623 25.3219 39.8929 25.6273C40.8664 26.0327 41.6408 27.1895 41.0442 28.7716C40.5598 30.0592 38.8569 31.416 37.8143 31.8994C37.744 31.9324 37.6682 31.9488 37.5924 31.9488Z" fill="#594599"/>
<path fill-rule="evenodd" clip-rule="evenodd" d="M15.5911 46.737C15.5834 46.8677 15.6306 47.0029 15.7207 47.1017C15.7823 47.1698 15.8942 47.2512 16.0733 47.2512H33.2418C33.4208 47.2512 33.5328 47.1698 33.5943 47.1017C33.6845 47.0029 33.7317 46.8677 33.724 46.737C33.6526 46.2953 33.5999 45.7669 33.5449 45.2088C33.356 43.295 33.0967 40.6747 31.8431 40.355L27.5541 39.263C26.7235 40.2001 25.7051 40.7121 24.6581 40.7121C23.61 40.7121 22.5915 40.2001 21.761 39.263L17.472 40.355C16.2185 40.6747 15.9591 43.295 15.7701 45.2077C15.7152 45.7669 15.6624 46.2942 15.5911 46.737ZM33.2418 48.3058H16.0733C15.6329 48.3058 15.2307 48.1301 14.9406 47.8114C14.6473 47.4884 14.5012 47.0567 14.5419 46.6238C14.543 46.6117 14.5451 46.5997 14.5473 46.5876C14.6155 46.1745 14.666 45.6548 14.7209 45.1044C14.9528 42.7567 15.2417 39.8343 17.2115 39.3333L21.8237 38.1589C22.0257 38.1072 22.24 38.1808 22.3685 38.3456C23.041 39.2037 23.833 39.6574 24.6581 39.6574C25.4821 39.6574 26.2742 39.2037 26.9465 38.3456C27.0752 38.1808 27.2893 38.1072 27.4915 38.1589L32.1036 39.3333C34.0734 39.8343 34.3623 42.7567 34.5941 45.1044C34.6492 45.6548 34.7007 46.1745 34.7677 46.5876C34.7699 46.5997 34.7721 46.6117 34.7732 46.6238C34.8139 47.0556 34.6677 47.4884 34.3744 47.8114C34.0845 48.1301 33.6823 48.3058 33.2418 48.3058Z" fill="#594599"/>
<path fill-rule="evenodd" clip-rule="evenodd" d="M21.9532 39.1984C21.662 39.1984 21.4258 38.9622 21.4258 38.671L21.4258 36.209C21.4258 35.9179 21.662 35.6816 21.9531 35.6816C22.2443 35.6816 22.4805 35.9179 22.4805 36.209V38.671C22.4805 38.9622 22.2443 39.1984 21.9532 39.1984Z" fill="#594599"/>
<path fill-rule="evenodd" clip-rule="evenodd" d="M27.3624 39.1974C27.0712 39.1974 26.835 38.9612 26.835 38.6701L26.835 36.208C26.835 35.9169 27.0711 35.6807 27.3623 35.6807C27.6535 35.6807 27.8896 35.9169 27.8896 36.208L27.8897 38.6701C27.8897 38.9612 27.6534 39.1974 27.3624 39.1974Z" fill="#594599"/>
<path fill-rule="evenodd" clip-rule="evenodd" d="M24.6576 37.8534C23.3129 37.8534 22.0637 37.2338 21.142 36.1066C20.139 34.8827 19.6094 33.1557 19.6094 31.1122C19.6095 30.821 19.8456 30.5849 20.1367 30.5849C20.4279 30.5849 20.664 30.821 20.664 31.1122C20.6641 35.0189 22.7339 36.7987 24.6576 36.7987C26.5814 36.7987 28.6522 35.0189 28.6522 31.1122C28.6523 31.0902 28.6522 31.0682 28.6511 31.0463L28.65 31.0078C28.6457 30.7167 28.8775 30.4772 29.1686 30.4717H29.1774C29.4653 30.4717 29.7003 30.7024 29.7047 30.9902L29.7059 31.0232C29.7059 31.0529 29.7069 31.0825 29.7069 31.1122C29.707 33.1557 29.1774 34.8827 28.1743 36.1066C27.2527 37.2338 26.0034 37.8534 24.6576 37.8534Z" fill="#594599"/>
<path fill-rule="evenodd" clip-rule="evenodd" d="M24.6572 25.9099C23.7749 25.9099 22.9246 26.234 22.3621 27.0426C22.2819 27.159 22.1577 27.2381 22.0182 27.2623C21.2614 27.3908 20.7394 27.704 20.467 28.1928C20.1462 28.7674 20.1571 29.5815 20.4944 30.5648C21.3635 30.4527 22.1127 29.8891 22.4566 29.0619C22.5171 28.9157 22.6389 28.8059 22.7895 28.7597C22.94 28.7136 23.1037 28.7378 23.2344 28.8246C24.9351 29.9506 26.8379 30.5242 28.7594 30.4879C29.1682 28.4312 27.8289 26.9811 26.4951 26.3449C25.9284 26.0747 25.2845 25.9099 24.6572 25.9099ZM20.1737 31.6392C20.1594 31.6392 20.145 31.6392 20.1297 31.6392C19.9176 31.637 19.7265 31.5074 19.6474 31.3097C19.063 29.8638 19.0277 28.6081 19.5463 27.6798C19.9473 26.9602 20.6647 26.4735 21.6282 26.2636C22.7873 24.7969 24.9395 24.4344 26.9489 25.3924C28.8749 26.3109 30.4667 28.4466 29.6834 31.1459C29.6219 31.3602 29.4318 31.5118 29.2088 31.525C27.1116 31.6513 25.0263 31.1295 23.1454 30.0133C22.5061 31.0196 21.3964 31.6392 20.1737 31.6392Z" fill="#594599"/>
<path fill-rule="evenodd" clip-rule="evenodd" d="M19.5049 48.3062C19.2138 48.3062 18.9775 48.07 18.9775 47.7788L18.9776 43.8896C18.9776 43.5985 19.2138 43.3623 19.5049 43.3623C19.7961 43.3623 20.0322 43.5985 20.0322 43.8896L20.0323 47.7788C20.0323 48.07 19.796 48.3062 19.5049 48.3062Z" fill="#594599"/>
<path fill-rule="evenodd" clip-rule="evenodd" d="M29.8076 48.3062C29.5166 48.3062 29.2803 48.07 29.2803 47.7788L29.2804 43.8896C29.2804 43.5985 29.5165 43.3623 29.8076 43.3623C30.0988 43.3623 30.335 43.5985 30.335 43.8896L30.335 47.7788C30.335 48.07 30.0988 48.3062 29.8076 48.3062Z" fill="#594599"/>
</svg>
