<svg width="54" height="54" viewBox="0 0 54 54" fill="none" xmlns="http://www.w3.org/2000/svg">
<path fill-rule="evenodd" clip-rule="evenodd" d="M27.0006 1.17906C26.2929 1.17906 25.6186 1.72566 24.905 2.30538C24.3905 2.72295 23.8586 3.15529 23.2703 3.40461C22.6575 3.66374 21.9598 3.73626 21.2843 3.80624C20.4282 3.89589 19.6188 3.97945 19.1815 4.41788C18.7444 4.85512 18.6596 5.6633 18.5699 6.52059C18.5001 7.1949 18.4274 7.89372 18.1683 8.50539C17.9204 9.09367 17.4878 9.62676 17.0703 10.1402C16.4906 10.8549 15.9427 11.5293 15.9427 12.2355C15.9428 12.9429 16.4905 13.6172 17.0703 14.332C17.4879 14.8466 17.9202 15.3785 18.1683 15.9668C18.4275 16.5784 18.4999 17.2773 18.5699 17.9528C18.6596 18.8089 18.7443 19.617 19.1815 20.0555C19.6188 20.4927 20.4282 20.5763 21.2843 20.6659C21.96 20.7359 22.6574 20.8084 23.2703 21.0676C23.8588 21.3169 24.3904 21.7492 24.905 22.1668C25.6189 22.7465 26.2929 23.2931 27.0004 23.2931C27.7078 23.2931 28.3821 22.7465 29.0957 22.1668C29.6105 21.7492 30.1421 21.3169 30.7304 21.0676C31.3434 20.8084 32.041 20.7359 32.7165 20.6659C33.5727 20.5763 34.3819 20.4927 34.8192 20.0543C35.2565 19.617 35.3412 18.8089 35.4308 17.9516C35.5011 17.2773 35.5733 16.5784 35.8324 15.9668C36.0806 15.3785 36.5129 14.8466 36.9304 14.332C37.5104 13.6172 38.058 12.9429 38.058 12.2355C38.0581 11.5292 37.5102 10.855 36.9304 10.1402C36.5131 9.62676 36.0805 9.0937 35.8324 8.50539C35.5735 7.89372 35.5008 7.1949 35.4296 6.52059C35.3414 5.6633 35.2564 4.85512 34.8192 4.41666C34.3822 3.97941 33.5725 3.89589 32.7165 3.80624C32.0412 3.73622 31.3433 3.66255 30.7304 3.40461C30.1421 3.15529 29.6104 2.72299 29.0957 2.30538C28.3823 1.72566 27.7078 1.1791 27.0006 1.17906ZM27.0006 24.4722C25.8753 24.4722 24.9652 23.734 24.1619 23.0818C23.6905 22.6986 23.2445 22.3375 22.8109 22.1545C22.3602 21.9642 21.778 21.9027 21.1627 21.8389C20.1397 21.732 19.0809 21.6215 18.3476 20.8883C17.6145 20.155 17.5038 19.0975 17.3982 18.0744C17.3331 17.4578 17.2729 16.8757 17.0826 16.4261C16.8985 15.9913 16.5372 15.5455 16.154 15.0751C15.5032 14.2718 14.7637 13.3617 14.7637 12.2355C14.7637 11.1104 15.503 10.2003 16.154 9.39705C16.5372 8.92544 16.8983 8.48081 17.0826 8.04603C17.2729 7.5965 17.3331 7.01435 17.3982 6.39776C17.5039 5.37464 17.6144 4.31719 18.3476 3.58394C19.081 2.85066 20.1395 2.74015 21.1615 2.6333C21.7782 2.56945 22.3601 2.50804 22.8109 2.31889C23.2445 2.13464 23.6903 1.77357 24.1619 1.39036C24.9653 0.738158 25.8753 0 27.0004 0C28.1256 0 29.0355 0.738158 29.8387 1.39036C30.3104 1.77357 30.755 2.13464 31.1898 2.31767C31.6408 2.50804 32.2227 2.56945 32.8381 2.6333C33.8612 2.74012 34.9199 2.85069 35.6531 3.58394C36.3865 4.31716 36.4969 5.37468 36.6025 6.39776C36.6678 7.01431 36.7278 7.59653 36.9182 8.04603C37.1014 8.48081 37.4635 8.92669 37.8455 9.39705C38.4978 10.2003 39.237 11.1104 39.237 12.2355C39.2373 13.3617 38.4977 14.2718 37.8455 15.0751C37.4637 15.5455 37.1024 15.9913 36.9182 16.4261C36.7278 16.8757 36.6677 17.4578 36.6025 18.0744C36.497 19.0975 36.3864 20.155 35.6531 20.8883C34.9199 21.6215 33.8612 21.732 32.8381 21.8389C32.2228 21.9027 31.6406 21.9629 31.1898 22.1533C30.7551 22.3375 30.3104 22.6986 29.8387 23.0818C29.0357 23.734 28.1254 24.4722 27.0006 24.4722Z" fill="white"/>
<path fill-rule="evenodd" clip-rule="evenodd" d="M20.3165 30.3528C20.2627 30.3528 20.2084 30.3504 20.1544 30.343C19.6423 30.2779 19.2221 29.9131 19.0846 29.4157L18.5418 27.4518C18.5272 27.4002 18.473 27.3695 18.4226 27.383L16.4516 27.8951C15.9516 28.0253 15.4258 27.8435 15.1138 27.4321C14.8006 27.0219 14.765 26.4667 15.0229 26.0197L18.3465 20.2642C18.5101 19.9818 18.8697 19.8848 19.1522 20.0481C19.4336 20.2114 19.5304 20.5713 19.3683 20.8538L16.045 26.6092C16.0362 26.6252 16.0116 26.6657 16.0509 26.7185C16.0915 26.7701 16.1369 26.7578 16.1541 26.7541L18.1254 26.242C18.7972 26.0675 19.4936 26.4692 19.6778 27.1386L20.2209 29.1013C20.2256 29.1184 20.2379 29.1651 20.303 29.1737C20.3671 29.1811 20.3914 29.1393 20.4012 29.1246L24.2271 22.4959C24.3905 22.2147 24.7504 22.1176 25.0328 22.2798C25.3154 22.4431 25.4111 22.803 25.249 23.0854L21.4219 29.7141C21.1912 30.1133 20.7697 30.3528 20.3165 30.3528Z" fill="white"/>
<path fill-rule="evenodd" clip-rule="evenodd" d="M33.6833 30.3528C33.2301 30.3528 32.8086 30.1133 32.5777 29.7141L28.7507 23.0854C28.5885 22.803 28.6843 22.4431 28.9667 22.2798C29.2482 22.1164 29.6091 22.2134 29.7724 22.4959L33.5985 29.1246C33.6084 29.1405 33.6315 29.1823 33.6966 29.1737C33.7618 29.1651 33.774 29.1184 33.7789 29.1013L34.3219 27.1386C34.5062 26.4692 35.2024 26.0676 35.8729 26.242L37.8445 26.7541C37.8628 26.7578 37.9082 26.7701 37.9487 26.7185C37.9882 26.6657 37.9634 26.6252 37.9548 26.6092L34.6314 20.8538C34.4692 20.5713 34.5649 20.2114 34.8474 20.0481C35.13 19.8848 35.4898 19.9818 35.6531 20.2642L38.9756 26.0197C39.2348 26.4667 39.199 27.0219 38.8858 27.4321C38.5741 27.8435 38.0481 28.0253 37.5483 27.8951L35.5771 27.383C35.5254 27.3695 35.4714 27.4014 35.4578 27.4518L34.9152 29.4157C34.7776 29.9131 34.3574 30.2779 33.8464 30.343C33.7913 30.3504 33.7371 30.3528 33.6833 30.3528Z" fill="white"/>
<path fill-rule="evenodd" clip-rule="evenodd" d="M24.9346 9.65029C24.7038 9.65029 24.474 9.69944 24.264 9.78666C23.4362 10.1317 22.8405 11.1119 23.3735 12.5243C23.8637 13.825 25.7501 15.4106 26.9992 16.0763C28.2472 15.4106 30.1348 13.825 30.6249 12.5243C31.1579 11.1119 30.561 10.1317 29.7344 9.78666C28.9953 9.47837 28.0296 9.65032 27.5347 10.7275C27.4391 10.9374 27.2301 11.0713 26.9992 11.0713C26.7682 11.0713 26.5595 10.9375 26.4637 10.7275C26.1102 9.95736 25.5156 9.65032 24.9346 9.65029ZM26.9995 17.3254C26.9146 17.3254 26.8297 17.307 26.7511 17.2701C25.34 16.6155 22.9314 14.6971 22.2694 12.9407C21.4637 10.8036 22.5039 9.24378 23.8095 8.69846C24.8304 8.27347 26.1272 8.42826 26.9992 9.40592C27.8713 8.42823 29.1682 8.27351 30.1889 8.69846C31.4945 9.24374 32.5347 10.8036 31.729 12.9407C31.067 14.697 28.6585 16.6155 27.2473 17.2701C27.1689 17.307 27.084 17.3254 26.9995 17.3254Z" fill="white"/>
<path fill-rule="evenodd" clip-rule="evenodd" d="M27.0002 5.39879C23.2294 5.39879 20.1625 8.46569 20.1625 12.2363C20.1625 16.0056 23.2293 19.0725 26.9999 19.0725C30.7707 19.0725 33.8374 16.0056 33.8374 12.2363C33.8376 8.46565 30.7705 5.39879 27.0002 5.39879ZM27.0002 20.2516C22.5797 20.2516 18.9834 16.6554 18.9834 12.2363C18.9836 7.81467 22.5796 4.21973 26.9999 4.21973C31.4204 4.21969 35.0165 7.81471 35.0165 12.2363C35.0165 16.6554 31.4203 20.2516 27.0002 20.2516Z" fill="white"/>
<path fill-rule="evenodd" clip-rule="evenodd" d="M21.1589 41.8969C20.8983 41.8969 20.66 41.7237 20.5888 41.4596L18.3009 32.9076C17.9778 31.7015 16.855 30.9154 15.6882 31.08C12.3315 31.5516 11.8697 31.3797 10.2423 30.4905C9.88857 30.2976 9.48822 30.079 8.96495 29.8223C7.63604 29.1701 6.51589 29.32 6.20025 29.8407C5.89836 30.3406 6.29484 31.3588 7.86328 32.5084C9.02166 33.3571 10.0544 33.8091 11.1131 33.9332C11.2877 33.9503 13.4172 34.1886 14.4919 35.6416C14.686 35.9032 14.6307 36.2729 14.3691 36.4657C14.1076 36.6598 13.7378 36.6045 13.5437 36.3429C12.764 35.2879 11.0136 35.1073 10.9964 35.1061C10.9928 35.1061 10.9878 35.1049 10.9841 35.1049C9.71059 34.9575 8.49824 34.4355 7.1669 33.4603C4.85045 31.7629 4.62812 30.1625 5.19189 29.2303C5.88844 28.0807 7.69254 27.8842 9.48446 28.7636C10.0301 29.0313 10.4609 29.2671 10.8072 29.4563C12.2198 30.2276 12.4371 30.3455 15.5248 29.912C17.279 29.6676 18.9627 30.8221 19.4392 32.603L21.7287 41.155C21.8121 41.4694 21.6254 41.7925 21.311 41.8772C21.2608 41.8907 21.209 41.8969 21.1589 41.8969Z" fill="white"/>
<path fill-rule="evenodd" clip-rule="evenodd" d="M12.4248 44.2375C12.1645 44.2375 11.9261 44.0631 11.8549 43.8002C10.9721 40.5037 10.2017 40.3194 8.80278 39.9866C7.97866 39.7901 6.95307 39.5457 5.72119 38.6773C4.10756 37.5388 2.42956 33.2376 1.39669 29.591C0.362496 25.9383 -0.469002 21.3509 0.301047 19.4337C0.757965 18.2988 1.63612 17.6958 2.64942 17.8235C3.69831 17.9537 4.56789 18.8527 4.71774 19.9606C4.97088 21.841 6.11544 27.8199 6.75044 28.6613C6.94705 28.9216 6.89538 29.2913 6.63499 29.4879C6.37583 29.6844 6.00612 29.6315 5.80962 29.3724C4.76693 27.9907 3.55953 20.194 3.5485 20.1178C3.4601 19.4607 2.9442 19.0481 2.50327 18.9928C2.04022 18.9338 1.64726 19.2482 1.39544 19.8734C0.85994 21.2048 1.31682 24.9816 2.5315 29.2704C3.72181 33.4746 5.3134 36.9468 6.40037 37.7132C7.44696 38.4514 8.31268 38.6577 9.07668 38.8394C10.8455 39.2607 11.9802 39.7115 12.9947 43.4944C13.0784 43.81 12.8915 44.1331 12.5771 44.2166C12.5257 44.2313 12.4751 44.2375 12.4248 44.2375Z" fill="white"/>
<path fill-rule="evenodd" clip-rule="evenodd" d="M22.3349 41.6308C22.2686 41.6308 22.2021 41.6394 22.1358 41.6566L11.7552 44.4385C11.5574 44.4913 11.3914 44.619 11.2883 44.7983C11.1851 44.9776 11.1569 45.184 11.2096 45.3817L13.0521 52.2548C13.1049 52.4526 13.2326 52.6172 13.4106 52.7215C13.5902 52.8247 13.7975 52.8517 13.9953 52.7989L24.3763 50.0182C24.7864 49.9077 25.0308 49.4852 24.9203 49.075L23.0791 42.2019C22.9871 41.858 22.675 41.6308 22.3349 41.6308ZM13.7952 54.005C13.4575 54.005 13.1232 53.9166 12.8211 53.7422C12.3704 53.4818 12.0473 53.0618 11.9122 52.5594L10.0712 45.6876C9.93602 45.1852 10.006 44.6608 10.2676 44.2088C10.5283 43.7568 10.9481 43.4338 11.4492 43.2999L21.83 40.518C22.8691 40.2392 23.9401 40.8582 24.2177 41.8961L26.0601 48.7692C26.1939 49.2703 26.1239 49.796 25.8635 50.2479C25.6033 50.6999 25.183 51.0229 24.6807 51.1568L14.2999 53.9387C14.1329 53.9829 13.9633 54.005 13.7952 54.005Z" fill="white"/>
<path fill-rule="evenodd" clip-rule="evenodd" d="M32.8408 41.8969C32.7905 41.8969 32.7389 41.8908 32.6885 41.8772C32.3741 41.7925 32.1874 41.4695 32.2709 41.155L34.5605 32.603C35.037 30.8233 36.717 29.6651 38.4746 29.912C41.5624 30.3455 41.7797 30.2276 43.1922 29.4563C43.5385 29.2671 43.9684 29.0313 44.515 28.7636C46.307 27.8842 48.1111 28.0807 48.8076 29.2303C49.3714 30.1625 49.149 31.7629 46.8326 33.4603C45.5015 34.4355 44.2877 34.9575 43.0153 35.1049C43.0118 35.1048 43.0067 35.1061 43.0018 35.1061C42.9858 35.1073 41.2344 35.2879 40.4545 36.3429C40.2619 36.6045 39.8919 36.6598 39.6303 36.4657C39.369 36.2729 39.3135 35.9032 39.5075 35.6416C40.581 34.1886 42.7119 33.9503 42.8863 33.9332C43.9451 33.8091 44.978 33.3571 46.135 32.5084C47.7048 31.3588 48.1013 30.3406 47.7979 29.8407C47.4837 29.32 46.3634 29.1701 45.0345 29.8223C44.5113 30.079 44.1109 30.2976 43.7572 30.4905C42.13 31.3797 41.668 31.5516 38.3112 31.08C37.1447 30.9154 36.0219 31.7015 35.6988 32.9076L33.4107 41.4596C33.3396 41.7237 33.1011 41.8969 32.8408 41.8969Z" fill="white"/>
<path fill-rule="evenodd" clip-rule="evenodd" d="M41.5754 44.2375C41.5248 44.2375 41.4732 44.2313 41.4229 44.2166C41.1086 44.1331 40.9217 43.81 41.0053 43.4944C42.02 39.7115 43.1546 39.2607 44.9232 38.8394C45.6874 38.6577 46.5531 38.4514 47.5983 37.7132C48.6866 36.9468 50.2783 33.4746 51.4684 29.2704C52.6832 24.9815 53.1388 21.2048 52.6045 19.8734C52.3529 19.2482 51.9585 18.935 51.4967 18.9928C51.0557 19.048 50.5399 19.4607 50.4502 20.1178C50.4406 20.194 49.2331 27.9907 48.1903 29.3724C47.9938 29.6328 47.6242 29.6844 47.3637 29.4879C47.1048 29.2913 47.053 28.9216 47.2495 28.6613C47.8847 27.8199 49.0279 21.841 49.2822 19.9606C49.4322 18.8527 50.3016 17.9537 51.3505 17.8235C52.364 17.6958 53.2419 18.2988 53.6989 19.4337C54.4692 21.3509 53.6375 25.9383 52.6033 29.591C51.5706 33.2376 49.8926 37.5388 48.2788 38.6773C47.0471 39.5457 46.0213 39.7901 45.1971 39.9866C43.7983 40.3194 43.0282 40.5037 42.1451 43.8002C42.0739 44.0631 41.8356 44.2375 41.5754 44.2375Z" fill="white"/>
<path fill-rule="evenodd" clip-rule="evenodd" d="M31.6667 41.6302C31.3265 41.6302 31.0143 41.8574 30.9222 42.2013L29.0812 49.0744C29.0273 49.2709 29.0554 49.4785 29.1586 49.6578C29.2619 49.8371 29.4275 49.9649 29.6252 50.0176L40.0063 52.7984C40.2039 52.8524 40.4115 52.8241 40.5895 52.721C40.769 52.6166 40.8965 52.452 40.9494 52.2542L42.7919 45.3812C42.8447 45.1834 42.8163 44.9771 42.7131 44.7978C42.6101 44.6184 42.4441 44.4907 42.2464 44.4379L31.8657 41.656C31.7994 41.6388 31.7317 41.6302 31.6667 41.6302ZM40.2064 54.0044C40.0381 54.0044 39.8686 53.9823 39.7015 53.9381L29.3208 51.1562C28.8184 51.0224 28.3983 50.6993 28.1379 50.2474C27.8777 49.7954 27.8075 49.2697 27.9413 48.7686L29.7826 41.8955C29.9177 41.3944 30.2406 40.9743 30.6926 40.7139C31.1447 40.4523 31.669 40.3823 32.1701 40.5174L42.5523 43.2993C43.0533 43.4332 43.4733 43.7562 43.7338 44.2082C43.9954 44.6602 44.0641 45.1847 43.9303 45.687L42.0892 52.5589C41.9543 53.0612 41.631 53.4812 41.1791 53.7416C40.8782 53.916 40.5441 54.0044 40.2064 54.0044Z" fill="white"/>
</svg>
