<svg width="32" height="32" viewBox="0 0 32 32" fill="none" xmlns="http://www.w3.org/2000/svg">
<path d="M6.99063 14.4375C7.77773 14.4375 8.44375 15.1035 8.44375 15.8906V30.4219C8.44375 31.2695 7.77773 31.875 6.99063 31.875H2.14688C1.29922 31.875 0.69375 31.2695 0.69375 30.4219V15.8906C0.69375 15.1035 1.29922 14.4375 2.14688 14.4375H6.99063ZM4.56875 29.4531C5.35586 29.4531 6.02188 28.8477 6.02188 28C6.02188 27.2129 5.35586 26.5469 4.56875 26.5469C3.72109 26.5469 3.11563 27.2129 3.11563 28C3.11563 28.8477 3.72109 29.4531 4.56875 29.4531ZM23.9438 5.83984C23.9438 8.38281 22.3695 9.83594 21.8852 11.5312H28.0609C30.059 11.5312 31.6332 13.2266 31.6332 15.1035C31.6938 16.1934 31.2094 17.3438 30.4828 18.0703C31.0883 19.4629 30.9672 21.4609 29.9379 22.8535C30.4223 24.4277 29.9379 26.3652 28.9086 27.3945C29.2113 28.4844 29.0902 29.3926 28.5453 30.1191C27.3344 31.875 24.2465 31.875 21.643 31.875H21.4613C18.5551 31.875 16.1938 30.8457 14.2563 29.998C13.2875 29.5742 12.016 29.0293 11.0473 29.0293C10.684 28.9688 10.3813 28.666 10.3813 28.3027V15.3457C10.3813 15.1641 10.4418 14.9824 10.5629 14.8008C12.9848 12.4395 14.0141 9.95703 15.9516 7.95898C16.8598 7.05078 17.1625 5.71875 17.5258 4.38672C17.768 3.29688 18.3129 0.875 19.5844 0.875C21.0375 0.875 23.9438 1.35938 23.9438 5.83984Z" fill="#E53247"/>
</svg>
