<svg width="31" height="31" viewBox="0 0 31 31" fill="none" xmlns="http://www.w3.org/2000/svg">
<path d="M30.2094 15.375C30.2094 23.6699 23.4281 30.3906 15.1938 30.3906C6.89883 30.3906 0.178125 23.6699 0.178125 15.375C0.178125 7.14062 6.89883 0.359375 15.1938 0.359375C23.4281 0.359375 30.2094 7.14062 30.2094 15.375ZM13.4379 23.3672L24.5785 12.2266C24.9418 11.8633 24.9418 11.1973 24.5785 10.834L23.1859 9.50195C22.8227 9.07812 22.2172 9.07812 21.8539 9.50195L12.7719 18.584L8.47305 14.3457C8.10977 13.9219 7.5043 13.9219 7.14102 14.3457L5.74844 15.6777C5.38516 16.041 5.38516 16.707 5.74844 17.0703L12.0453 23.3672C12.4086 23.7305 13.0746 23.7305 13.4379 23.3672Z" fill="#E53247"/>
</svg>
