<svg width="13" height="18" viewBox="0 0 13 18" fill="none" xmlns="http://www.w3.org/2000/svg">
<path d="M6.35936 16.5771C1.79686 10.0146 0.984359 9.32715 0.984359 6.88965C0.984359 3.57715 3.64061 0.889648 6.98436 0.889648C10.2969 0.889648 12.9844 3.57715 12.9844 6.88965C12.9844 9.32715 12.1406 10.0146 7.57811 16.5771C7.29686 17.0146 6.64061 17.0146 6.35936 16.5771ZM6.98436 9.38965C8.35936 9.38965 9.48436 8.2959 9.48436 6.88965C9.48436 5.51465 8.35936 4.38965 6.98436 4.38965C5.57811 4.38965 4.48436 5.51465 4.48436 6.88965C4.48436 8.2959 5.57811 9.38965 6.98436 9.38965Z" fill="white"/>
</svg>
