<svg width="1197" height="209" viewBox="0 0 1197 209" fill="none" xmlns="http://www.w3.org/2000/svg">
<path d="M233.7 12.3398C235.3 15.3398 236.2 18.0398 236.4 20.4398C236.8 22.8398 237 26.3398 237 30.9398V197.44C237 211.24 233.2 219.34 225.6 221.74C221.8 222.94 217 223.54 211.2 223.54C205.4 223.54 200.8 223.04 197.4 222.04C194 221.04 191.4 219.84 189.6 218.44C187.8 217.04 186.4 215.04 185.4 212.44C184.4 209.04 183.9 203.84 183.9 196.84V96.3398C178.9 102.54 171.6 112.44 162 126.04C152.4 139.44 146.3 147.84 143.7 151.24C141.1 154.64 139.3 157.04 138.3 158.44C137.3 159.64 134.8 161.44 130.8 163.84C127 166.04 122.8 167.14 118.2 167.14C113.8 167.14 109.7 166.14 105.9 164.14C102.3 161.94 99.7 159.84 98.1 157.84L95.7 154.54C91.7 149.54 83.8 138.94 72 122.74C60.2 106.34 53.8 97.5398 52.8 96.3398V197.44C52.8 202.04 52.6 205.54 52.2 207.94C52 210.14 51.1 212.64 49.5 215.44C46.5 220.84 38.7 223.54 26.1 223.54C13.9 223.54 6.3 220.84 3.3 215.44C1.7 212.64 0.7 210.04 0.3 207.64C0.100001 205.24 8.49366e-07 201.64 8.49366e-07 196.84V30.3398C8.49366e-07 25.7398 0.100001 22.3398 0.3 20.1398C0.7 17.7398 1.7 15.0398 3.3 12.0398C6.3 6.83983 14.1 4.23983 26.7 4.23983C32.1 4.23983 36.7 4.93983 40.5 6.33984C44.5 7.53983 47.1 8.83983 48.3 10.2398L50.1 12.0398L118.2 101.44C152.2 56.4398 174.9 26.7398 186.3 12.3398C189.7 6.93983 197.7 4.23983 210.3 4.23983C223.1 4.23983 230.9 6.93983 233.7 12.3398ZM314.135 170.74H406.535C411.135 170.74 414.535 170.94 416.735 171.34C419.135 171.54 421.835 172.44 424.835 174.04C430.235 176.84 432.935 184.64 432.935 197.44C432.935 211.44 429.235 219.64 421.835 222.04C418.435 223.24 413.235 223.84 406.235 223.84H287.435C273.435 223.84 265.235 220.04 262.835 212.44C261.635 209.24 261.035 204.14 261.035 197.14V30.3398C261.035 20.1398 262.935 13.2398 266.735 9.63983C270.535 5.83983 277.735 3.93983 288.335 3.93983H406.535C411.135 3.93983 414.535 4.13984 416.735 4.53984C419.135 4.73984 421.835 5.63983 424.835 7.23983C430.235 10.0398 432.935 17.8398 432.935 30.6398C432.935 44.6398 429.235 52.8398 421.835 55.2398C418.435 56.4398 413.235 57.0398 406.235 57.0398H314.135V87.3398H373.535C378.135 87.3398 381.535 87.5398 383.735 87.9398C386.135 88.1398 388.835 89.0398 391.835 90.6398C397.235 93.4398 399.935 101.24 399.935 114.04C399.935 128.04 396.135 136.24 388.535 138.64C385.135 139.84 379.935 140.44 372.935 140.44H314.135V170.74ZM620.644 186.64C623.644 193.84 625.144 199.04 625.144 202.24C625.144 209.84 618.944 216.24 606.544 221.44C600.144 224.24 594.944 225.64 590.944 225.64C587.144 225.64 583.944 224.74 581.344 222.94C578.944 220.94 577.144 218.94 575.944 216.94C573.944 213.14 566.144 195.04 552.544 162.64L543.244 163.24H505.444V197.14C505.444 201.74 505.244 205.24 504.844 207.64C504.644 209.84 503.744 212.44 502.144 215.44C499.344 220.84 491.544 223.54 478.744 223.54C464.744 223.54 456.544 219.84 454.144 212.44C452.944 209.04 452.344 203.84 452.344 196.84V30.3398C452.344 25.7398 452.444 22.3398 452.644 20.1398C453.044 17.7398 454.044 15.0398 455.644 12.0398C458.444 6.63983 466.244 3.93983 479.044 3.93983H543.844C561.444 3.93983 578.544 10.3398 595.144 23.1398C603.144 29.3398 609.744 37.7398 614.944 48.3398C620.144 58.9398 622.744 70.7398 622.744 83.7398C622.744 106.34 615.244 124.94 600.244 139.54C604.644 150.14 611.444 165.84 620.644 186.64ZM505.444 110.14H543.844C549.644 110.14 555.444 107.94 561.244 103.54C567.044 99.1398 569.944 92.5398 569.944 83.7398C569.944 74.9398 567.044 68.3398 561.244 63.9398C555.444 59.3398 549.444 57.0398 543.244 57.0398H505.444V110.14ZM694.702 170.74H787.102C791.702 170.74 795.102 170.94 797.302 171.34C799.702 171.54 802.402 172.44 805.402 174.04C810.802 176.84 813.502 184.64 813.502 197.44C813.502 211.44 809.802 219.64 802.402 222.04C799.002 223.24 793.802 223.84 786.802 223.84H668.002C654.002 223.84 645.802 220.04 643.402 212.44C642.202 209.24 641.602 204.14 641.602 197.14V30.3398C641.602 20.1398 643.502 13.2398 647.302 9.63983C651.102 5.83983 658.302 3.93983 668.902 3.93983H787.102C791.702 3.93983 795.102 4.13984 797.302 4.53984C799.702 4.73984 802.402 5.63983 805.402 7.23983C810.802 10.0398 813.502 17.8398 813.502 30.6398C813.502 44.6398 809.802 52.8398 802.402 55.2398C799.002 56.4398 793.802 57.0398 786.802 57.0398H694.702V87.3398H754.102C758.702 87.3398 762.102 87.5398 764.302 87.9398C766.702 88.1398 769.402 89.0398 772.402 90.6398C777.802 93.4398 780.502 101.24 780.502 114.04C780.502 128.04 776.702 136.24 769.102 138.64C765.702 139.84 760.502 140.44 753.502 140.44H694.702V170.74ZM927.11 113.44C957.71 142.84 979.41 164.94 992.21 179.74C998.81 187.14 1002.11 193.44 1002.11 198.64C1002.11 203.64 998.11 209.64 990.11 216.64C982.11 223.44 975.51 226.84 970.31 226.84C965.31 226.84 959.21 222.64 952.01 214.24L886.01 138.94V197.44C886.01 202.24 885.81 205.74 885.41 207.94C885.21 210.14 884.31 212.74 882.71 215.74C879.91 221.14 872.11 223.84 859.31 223.84C845.31 223.84 837.11 220.04 834.71 212.44C833.51 209.24 832.91 204.14 832.91 197.14V30.3398C832.91 25.7398 833.01 22.3398 833.21 20.1398C833.61 17.7398 834.61 15.0398 836.21 12.0398C839.01 6.63983 846.81 3.93983 859.61 3.93983C873.61 3.93983 881.91 7.63983 884.51 15.0398C885.51 18.4398 886.01 23.6398 886.01 30.6398V87.9398C913.21 57.3398 935.21 32.2398 952.01 12.6398C959.01 4.43983 965.11 0.339824 970.31 0.339824C975.51 0.339824 982.11 3.83983 990.11 10.8398C998.11 17.6398 1002.11 23.6398 1002.11 28.8398C1002.11 33.8398 999.11 39.8398 993.11 46.8398C981.51 60.2398 963.51 78.6398 939.11 102.04L927.11 113.44ZM1077.61 170.74H1170.01C1174.61 170.74 1178.01 170.94 1180.21 171.34C1182.61 171.54 1185.31 172.44 1188.31 174.04C1193.71 176.84 1196.41 184.64 1196.41 197.44C1196.41 211.44 1192.71 219.64 1185.31 222.04C1181.91 223.24 1176.71 223.84 1169.71 223.84H1050.91C1036.91 223.84 1028.71 220.04 1026.31 212.44C1025.11 209.24 1024.51 204.14 1024.51 197.14V30.3398C1024.51 20.1398 1026.41 13.2398 1030.21 9.63983C1034.01 5.83983 1041.21 3.93983 1051.81 3.93983H1170.01C1174.61 3.93983 1178.01 4.13984 1180.21 4.53984C1182.61 4.73984 1185.31 5.63983 1188.31 7.23983C1193.71 10.0398 1196.41 17.8398 1196.41 30.6398C1196.41 44.6398 1192.71 52.8398 1185.31 55.2398C1181.91 56.4398 1176.71 57.0398 1169.71 57.0398H1077.61V87.3398H1137.01C1141.61 87.3398 1145.01 87.5398 1147.21 87.9398C1149.61 88.1398 1152.31 89.0398 1155.31 90.6398C1160.71 93.4398 1163.41 101.24 1163.41 114.04C1163.41 128.04 1159.61 136.24 1152.01 138.64C1148.61 139.84 1143.41 140.44 1136.41 140.44H1077.61V170.74Z" fill="#4B3C97"/>
</svg>
