<svg width="51" height="51" viewBox="0 0 51 51" fill="none" xmlns="http://www.w3.org/2000/svg">
<path d="M43.1138 10.3203C43.9927 11.1992 44.5787 12.4688 44.5787 13.6406V46.0625C44.5787 48.6992 42.4302 50.75 39.8912 50.75H11.7662C9.12944 50.75 7.07866 48.6992 7.07866 46.0625V5.4375C7.07866 2.89844 9.12944 0.75 11.7662 0.75H31.688C32.8599 0.75 34.1294 1.23828 35.0084 2.11719L43.1138 10.3203ZM39.5005 13.25L32.0787 5.82812V13.25H39.5005ZM11.7662 46.0625H39.8912V17.9375H29.7349C28.3677 17.9375 27.3912 16.9609 27.3912 15.5938V5.4375H11.7662V46.0625ZM36.1802 32.0977C37.1568 33.0742 36.9615 35.8086 34.4224 35.8086C32.9576 35.8086 30.8091 35.2227 28.9537 34.1484C26.9029 34.5391 24.4615 35.418 22.313 36.1992C17.4302 44.5977 14.5982 40.7891 14.8912 39.2266C15.2818 37.2734 17.9185 35.7109 19.8716 34.7344C20.8482 32.8789 22.313 29.7539 23.2896 27.4102C22.606 24.6758 22.2154 22.4297 22.606 20.8672C23.0943 19.1094 26.4146 18.9141 26.8052 21.4531C27.2935 22.918 26.6099 25.3594 26.3169 26.9219C27.0982 28.9727 28.1724 30.4375 29.8326 31.4141C31.5904 31.2188 35.0084 30.9258 36.1802 32.0977ZM16.8443 39.7148C16.8443 39.7148 17.9185 39.2266 19.774 36.2969C19.188 36.7852 17.3326 38.3477 16.8443 39.7148ZM24.7544 21.0625C24.5591 21.0625 24.5591 23.6992 24.9498 25.0664C25.438 24.1875 25.5357 21.0625 24.7544 21.0625ZM22.4107 34.4414C23.9732 33.7578 25.731 32.9766 27.7818 32.4883C26.6099 31.707 25.6334 30.5352 24.8521 29.0703C24.1685 30.8281 23.3873 32.7812 22.4107 34.4414ZM35.2037 33.9531C35.5943 33.6602 35.0084 32.8789 31.5904 33.1719C34.7154 34.5391 35.2037 33.9531 35.2037 33.9531Z" fill="#333333"/>
</svg>
