<svg width="14" height="15" viewBox="0 0 14 15" fill="none" xmlns="http://www.w3.org/2000/svg">
<path d="M13 6.08984C13.5312 6.08984 14 6.55859 14 7.08984V8.08984C14 8.65234 13.5312 9.08984 13 9.08984H8.5V13.5898C8.5 14.1523 8.03125 14.5898 7.5 14.5898H6.5C5.9375 14.5898 5.5 14.1523 5.5 13.5898V9.08984H1C0.4375 9.08984 0 8.65234 0 8.08984V7.08984C0 6.55859 0.4375 6.08984 1 6.08984H5.5V1.58984C5.5 1.05859 5.9375 0.589844 6.5 0.589844H7.5C8.03125 0.589844 8.5 1.05859 8.5 1.58984V6.08984H13Z" fill="#141414"/>
</svg>
