<svg width="25" height="26" viewBox="0 0 25 26" fill="none" xmlns="http://www.w3.org/2000/svg">
<path d="M12.6648 7.84961C15.741 7.84961 18.2801 10.3887 18.2801 13.4648C18.2801 16.5898 15.741 19.0801 12.6648 19.0801C9.53982 19.0801 7.04959 16.5898 7.04959 13.4648C7.04959 10.3887 9.53982 7.84961 12.6648 7.84961ZM12.6648 17.127C14.6668 17.127 16.2781 15.5156 16.2781 13.4648C16.2781 11.4629 14.6668 9.85156 12.6648 9.85156C10.614 9.85156 9.00271 11.4629 9.00271 13.4648C9.00271 15.5156 10.6629 17.127 12.6648 17.127ZM19.7937 7.6543C19.7937 8.38672 19.2078 8.97266 18.4754 8.97266C17.7429 8.97266 17.157 8.38672 17.157 7.6543C17.157 6.92188 17.7429 6.33594 18.4754 6.33594C19.2078 6.33594 19.7937 6.92188 19.7937 7.6543ZM23.5047 8.97266C23.6023 10.7793 23.6023 16.1992 23.5047 18.0059C23.407 19.7637 23.0164 21.2773 21.7469 22.5957C20.4773 23.8652 18.9148 24.2559 17.157 24.3535C15.3504 24.4512 9.93045 24.4512 8.12381 24.3535C6.36599 24.2559 4.85232 23.8652 3.53396 22.5957C2.26443 21.2773 1.87381 19.7637 1.77615 18.0059C1.67849 16.1992 1.67849 10.7793 1.77615 8.97266C1.87381 7.21484 2.26443 5.65234 3.53396 4.38281C4.85232 3.11328 6.36599 2.72266 8.12381 2.625C9.93045 2.52734 15.3504 2.52734 17.157 2.625C18.9148 2.72266 20.4773 3.11328 21.7469 4.38281C23.0164 5.65234 23.407 7.21484 23.5047 8.97266ZM21.1609 19.9102C21.7469 18.4941 21.6004 15.0762 21.6004 13.4648C21.6004 11.9023 21.7469 8.48438 21.1609 7.01953C20.7703 6.0918 20.0379 5.31055 19.1101 4.96875C17.6453 4.38281 14.2273 4.5293 12.6648 4.5293C11.0535 4.5293 7.63552 4.38281 6.21951 4.96875C5.24295 5.35938 4.51052 6.0918 4.1199 7.01953C3.53396 8.48438 3.68045 11.9023 3.68045 13.4648C3.68045 15.0762 3.53396 18.4941 4.1199 19.9102C4.51052 20.8867 5.24295 21.6191 6.21951 22.0098C7.63552 22.5957 11.0535 22.4492 12.6648 22.4492C14.2273 22.4492 17.6453 22.5957 19.1101 22.0098C20.0379 21.6191 20.8191 20.8867 21.1609 19.9102Z" fill="#D0D0D0"/>
</svg>
