<svg width="25" height="26" viewBox="0 0 25 26" fill="none" xmlns="http://www.w3.org/2000/svg">
<path d="M12.6722 1.35547C19.3617 1.35547 24.7816 6.77539 24.7816 13.4648C24.7816 20.1543 19.3617 25.5742 12.6722 25.5742C5.98276 25.5742 0.562836 20.1543 0.562836 13.4648C0.562836 6.77539 5.98276 1.35547 12.6722 1.35547ZM18.5804 9.65625C18.7757 8.875 18.2874 8.5332 17.7503 8.72852L6.08041 13.2207C5.29916 13.5137 5.29916 14.002 5.93393 14.1973L8.91245 15.125L15.846 10.7305C16.1878 10.5352 16.4808 10.6816 16.2367 10.877L10.6214 15.9551L10.4261 19.0312C10.7191 19.0312 10.8656 18.8848 11.0121 18.7383L12.4769 17.3223L15.5042 19.5684C16.0902 19.8613 16.4808 19.7148 16.6273 19.0312L18.5804 9.65625Z" fill="#D0D0D0"/>
</svg>
