<svg width="25" height="26" viewBox="0 0 25 26" fill="none" xmlns="http://www.w3.org/2000/svg">
<path d="M20.282 5.75C22.3328 7.80078 23.6023 10.4863 23.6023 13.416C23.6023 19.373 18.6219 24.2559 12.616 24.2559C10.8094 24.2559 9.05154 23.7676 7.44021 22.9375L1.72732 24.4023L3.24099 18.7871C2.31326 17.1758 1.77615 15.3203 1.77615 13.3672C1.77615 7.41016 6.65896 2.52734 12.616 2.52734C15.5457 2.52734 18.2801 3.69922 20.282 5.75ZM12.616 22.4004C17.5965 22.4004 21.7469 18.3477 21.7469 13.416C21.7469 10.9746 20.7215 8.72852 19.0125 7.01953C17.3035 5.31055 15.0574 4.38281 12.6648 4.38281C7.68435 4.38281 3.63162 8.43555 3.63162 13.3672C3.63162 15.0762 4.1199 16.7363 4.99881 18.2012L5.24295 18.543L4.31521 21.8633L7.73318 20.9355L8.02615 21.1309C9.44216 21.9609 11.0047 22.4004 12.616 22.4004ZM17.5965 15.6621C17.8406 15.8086 18.0359 15.8574 18.0847 16.0039C18.1824 16.1016 18.1824 16.6387 17.9383 17.2734C17.6941 17.9082 16.6199 18.4941 16.1316 18.543C15.2527 18.6895 14.5691 18.6406 12.8601 17.8594C10.1258 16.6875 8.36795 13.9531 8.22146 13.8066C8.07498 13.6113 7.14724 12.3418 7.14724 10.9746C7.14724 9.65625 7.83084 9.02148 8.07498 8.72852C8.31912 8.43555 8.61209 8.38672 8.8074 8.38672C8.95388 8.38672 9.1492 8.38672 9.29568 8.38672C9.49099 8.38672 9.68631 8.33789 9.93045 8.875C10.1258 9.41211 10.7117 10.7305 10.7605 10.877C10.8094 11.0234 10.8582 11.1699 10.7605 11.3652C10.2722 12.3906 9.68631 12.3418 9.97927 12.8301C11.0535 14.6367 12.0789 15.2715 13.6902 16.0527C13.9344 16.1992 14.0808 16.1504 14.2761 16.0039C14.4226 15.8086 14.9597 15.1738 15.1062 14.9297C15.3015 14.6367 15.4969 14.6855 15.741 14.7832C15.9851 14.8809 17.3035 15.5156 17.5965 15.6621Z" fill="#D0D0D0"/>
</svg>
