<svg width="235" height="240" viewBox="0 0 235 240" fill="none" xmlns="http://www.w3.org/2000/svg">
<path d="M38.9284 202.143C41.8871 202.143 44.2856 199.744 44.2856 196.786C44.2856 193.827 41.8871 191.428 38.9284 191.428C35.9698 191.428 33.5713 193.827 33.5713 196.786C33.5713 199.744 35.9698 202.143 38.9284 202.143Z" fill="#F23D3D" fill-opacity="0.4" style="mix-blend-mode:multiply"/>
<path d="M70.3571 169.286C73.3158 169.286 75.7143 166.887 75.7143 163.928C75.7143 160.97 73.3158 158.571 70.3571 158.571C67.3985 158.571 65 160.97 65 163.928C65 166.887 67.3985 169.286 70.3571 169.286Z" fill="#F23D3D" fill-opacity="0.4" style="mix-blend-mode:multiply"/>
<path d="M103.215 137.857C106.173 137.857 108.572 135.458 108.572 132.5C108.572 129.541 106.173 127.143 103.215 127.143C100.256 127.143 97.8574 129.541 97.8574 132.5C97.8574 135.458 100.256 137.857 103.215 137.857Z" fill="#F23D3D" fill-opacity="0.4" style="mix-blend-mode:multiply"/>
<path d="M134.643 105.714C137.602 105.714 140 103.316 140 100.357C140 97.3985 137.602 95 134.643 95C131.685 95 129.286 97.3985 129.286 100.357C129.286 103.316 131.685 105.714 134.643 105.714Z" fill="#F23D3D" fill-opacity="0.4" style="mix-blend-mode:multiply"/>
<path d="M103.929 74.2866C106.888 74.2866 109.287 71.8881 109.287 68.9294C109.287 65.9707 106.888 63.5723 103.929 63.5723C100.971 63.5723 98.5723 65.9707 98.5723 68.9294C98.5723 71.8881 100.971 74.2866 103.929 74.2866Z" fill="#F23D3D" fill-opacity="0.4" style="mix-blend-mode:multiply"/>
<path d="M70.3571 42.8569C73.3158 42.8569 75.7143 40.4584 75.7143 37.4997C75.7143 34.5411 73.3158 32.1426 70.3571 32.1426C67.3985 32.1426 65 34.5411 65 37.4997C65 40.4584 67.3985 42.8569 70.3571 42.8569Z" fill="#F23D3D" fill-opacity="0.4" style="mix-blend-mode:multiply"/>
<path d="M38.9284 10.7143C41.8871 10.7143 44.2856 8.31582 44.2856 5.35715C44.2856 2.39848 41.8871 0 38.9284 0C35.9698 0 33.5713 2.39848 33.5713 5.35715C33.5713 8.31582 35.9698 10.7143 38.9284 10.7143Z" fill="#F23D3D" fill-opacity="0.4" style="mix-blend-mode:multiply"/>
<path d="M71.071 202.143C74.0297 202.143 76.4282 199.745 76.4282 196.786C76.4282 193.827 74.0297 191.429 71.071 191.429C68.1123 191.429 65.7139 193.827 65.7139 196.786C65.7139 199.745 68.1123 202.143 71.071 202.143Z" fill="#F23D3D" fill-opacity="0.4" style="mix-blend-mode:multiply"/>
<path d="M102.5 169.286C105.458 169.286 107.857 166.887 107.857 163.928C107.857 160.97 105.458 158.571 102.5 158.571C99.5411 158.571 97.1426 160.97 97.1426 163.928C97.1426 166.887 99.5411 169.286 102.5 169.286Z" fill="#F23D3D" fill-opacity="0.4" style="mix-blend-mode:multiply"/>
<path d="M135.357 137.857C138.316 137.857 140.714 135.458 140.714 132.5C140.714 129.541 138.316 127.143 135.357 127.143C132.398 127.143 130 129.541 130 132.5C130 135.458 132.398 137.857 135.357 137.857Z" fill="#F23D3D" fill-opacity="0.4" style="mix-blend-mode:multiply"/>
<path d="M166.785 105.714C169.744 105.714 172.142 103.316 172.142 100.357C172.142 97.3985 169.744 95 166.785 95C163.826 95 161.428 97.3985 161.428 100.357C161.428 103.316 163.826 105.714 166.785 105.714Z" fill="#F23D3D" fill-opacity="0.4" style="mix-blend-mode:multiply"/>
<path d="M136.071 74.2866C139.03 74.2866 141.428 71.8881 141.428 68.9294C141.428 65.9707 139.03 63.5723 136.071 63.5723C133.112 63.5723 130.714 65.9707 130.714 68.9294C130.714 71.8881 133.112 74.2866 136.071 74.2866Z" fill="#F23D3D" fill-opacity="0.4" style="mix-blend-mode:multiply"/>
<path d="M102.5 42.8569C105.458 42.8569 107.857 40.4584 107.857 37.4997C107.857 34.5411 105.458 32.1426 102.5 32.1426C99.5411 32.1426 97.1426 34.5411 97.1426 37.4997C97.1426 40.4584 99.5411 42.8569 102.5 42.8569Z" fill="#F23D3D" fill-opacity="0.4" style="mix-blend-mode:multiply"/>
<path d="M71.071 10.7143C74.0297 10.7143 76.4282 8.31582 76.4282 5.35715C76.4282 2.39848 74.0297 0 71.071 0C68.1123 0 65.7139 2.39848 65.7139 5.35715C65.7139 8.31582 68.1123 10.7143 71.071 10.7143Z" fill="#F23D3D" fill-opacity="0.4" style="mix-blend-mode:multiply"/>
<path d="M103.215 202.143C106.173 202.143 108.572 199.744 108.572 196.786C108.572 193.827 106.173 191.428 103.215 191.428C100.256 191.428 97.8574 193.827 97.8574 196.786C97.8574 199.744 100.256 202.143 103.215 202.143Z" fill="#F23D3D" fill-opacity="0.4" style="mix-blend-mode:multiply"/>
<path d="M134.643 169.286C137.602 169.286 140 166.887 140 163.928C140 160.97 137.602 158.571 134.643 158.571C131.685 158.571 129.286 160.97 129.286 163.928C129.286 166.887 131.685 169.286 134.643 169.286Z" fill="#F23D3D" fill-opacity="0.4" style="mix-blend-mode:multiply"/>
<path d="M167.5 137.857C170.458 137.857 172.857 135.458 172.857 132.5C172.857 129.541 170.458 127.143 167.5 127.143C164.541 127.143 162.143 129.541 162.143 132.5C162.143 135.458 164.541 137.857 167.5 137.857Z" fill="#F23D3D" fill-opacity="0.4" style="mix-blend-mode:multiply"/>
<path d="M198.929 105.714C201.888 105.714 204.287 103.316 204.287 100.357C204.287 97.3985 201.888 95 198.929 95C195.971 95 193.572 97.3985 193.572 100.357C193.572 103.316 195.971 105.714 198.929 105.714Z" fill="#F23D3D" fill-opacity="0.4" style="mix-blend-mode:multiply"/>
<path d="M168.215 74.2866C171.173 74.2866 173.572 71.8881 173.572 68.9294C173.572 65.9707 171.173 63.5723 168.215 63.5723C165.256 63.5723 162.857 65.9707 162.857 68.9294C162.857 71.8881 165.256 74.2866 168.215 74.2866Z" fill="#F23D3D" fill-opacity="0.4" style="mix-blend-mode:multiply"/>
<path d="M134.643 42.8569C137.602 42.8569 140 40.4584 140 37.4997C140 34.5411 137.602 32.1426 134.643 32.1426C131.685 32.1426 129.286 34.5411 129.286 37.4997C129.286 40.4584 131.685 42.8569 134.643 42.8569Z" fill="#F23D3D" fill-opacity="0.4" style="mix-blend-mode:multiply"/>
<path d="M103.215 10.7143C106.173 10.7143 108.572 8.31582 108.572 5.35715C108.572 2.39848 106.173 0 103.215 0C100.256 0 97.8574 2.39848 97.8574 5.35715C97.8574 8.31582 100.256 10.7143 103.215 10.7143Z" fill="#F23D3D" fill-opacity="0.4" style="mix-blend-mode:multiply"/>
<path d="M133.928 202.143C136.887 202.143 139.286 199.744 139.286 196.786C139.286 193.827 136.887 191.428 133.928 191.428C130.97 191.428 128.571 193.827 128.571 196.786C128.571 199.744 130.97 202.143 133.928 202.143Z" fill="#F23D3D" fill-opacity="0.4" style="mix-blend-mode:multiply"/>
<path d="M165.357 169.286C168.316 169.286 170.714 166.887 170.714 163.928C170.714 160.97 168.316 158.571 165.357 158.571C162.398 158.571 160 160.97 160 163.928C160 166.887 162.398 169.286 165.357 169.286Z" fill="#F23D3D" fill-opacity="0.4" style="mix-blend-mode:multiply"/>
<path d="M198.215 137.857C201.173 137.857 203.572 135.458 203.572 132.5C203.572 129.541 201.173 127.143 198.215 127.143C195.256 127.143 192.857 129.541 192.857 132.5C192.857 135.458 195.256 137.857 198.215 137.857Z" fill="#F23D3D" fill-opacity="0.4" style="mix-blend-mode:multiply"/>
<path d="M229.643 105.714C232.602 105.714 235 103.316 235 100.357C235 97.3985 232.602 95 229.643 95C226.685 95 224.286 97.3985 224.286 100.357C224.286 103.316 226.685 105.714 229.643 105.714Z" fill="#F23D3D" fill-opacity="0.4" style="mix-blend-mode:multiply"/>
<path d="M198.929 74.2866C201.888 74.2866 204.287 71.8881 204.287 68.9294C204.287 65.9707 201.888 63.5723 198.929 63.5723C195.971 63.5723 193.572 65.9707 193.572 68.9294C193.572 71.8881 195.971 74.2866 198.929 74.2866Z" fill="#F23D3D" fill-opacity="0.4" style="mix-blend-mode:multiply"/>
<path d="M165.357 42.8569C168.316 42.8569 170.714 40.4584 170.714 37.4997C170.714 34.5411 168.316 32.1426 165.357 32.1426C162.398 32.1426 160 34.5411 160 37.4997C160 40.4584 162.398 42.8569 165.357 42.8569Z" fill="#F23D3D" fill-opacity="0.4" style="mix-blend-mode:multiply"/>
<path d="M133.928 10.7143C136.887 10.7143 139.286 8.31582 139.286 5.35715C139.286 2.39848 136.887 0 133.928 0C130.97 0 128.571 2.39848 128.571 5.35715C128.571 8.31582 130.97 10.7143 133.928 10.7143Z" fill="#F23D3D" fill-opacity="0.4" style="mix-blend-mode:multiply"/>
</svg>
