<svg width="70" height="50" viewBox="0 0 70 50" fill="none" xmlns="http://www.w3.org/2000/svg">
<path d="M67.9291 8.40395C67.1326 5.41189 65.3863 2.87936 62.3943 2.08283C56.9718 0.632754 34.7202 0.5 34.7202 0.5C34.7202 0.5 12.4686 0.632754 7.04616 2.08283C4.0541 2.87936 2.31808 5.41189 1.51135 8.40395C0.061271 13.8264 0 25.0084 0 25.0084C0 25.0084 0.061271 36.1903 1.51135 41.6128C2.30787 44.6049 4.0541 47.1374 7.04616 47.9339C12.4686 49.384 34.7202 49.5168 34.7202 49.5168C34.7202 49.5168 56.9718 49.384 62.3943 47.9339C65.3863 47.1374 67.1326 44.6049 67.9291 41.6128C69.3792 36.1903 69.4404 25.0084 69.4404 25.0084C69.4404 25.0084 69.3792 13.8264 67.9291 8.40395Z" fill="#FF0000"/>
<path d="M45.9537 25.0077L27.5724 14.7959V35.2196" fill="white"/>
</svg>
